<svg xmlns="http://www.w3.org/2000/svg" fill="none" viewBox="0 0 48 48">
  <path fill="#fff" d="M36.44 41.5H11.56a5.275 5.275 0 0 1-4.744-3.462A5.28 5.28 0 0 1 6.5 36v-6a1.5 1.5 0 1 1 3 0v6a2.32 2.32 0 0 0 2 2.5h24.94a2.32 2.32 0 0 0 2-2.5v-6a1.5 1.5 0 1 1 3 0v6a5.28 5.28 0 0 1-5 5.5Z"/>
  <path fill="#fff" d="M24 31.5a1.482 1.482 0 0 1-1.06-.44l-8-8a1.5 1.5 0 0 1 2.12-2.12L24 27.88l6.94-6.94a1.5 1.5 0 0 1 2.12 2.12l-8 8a1.477 1.477 0 0 1-1.06.44Z"/>
  <path fill="#fff" d="M24 31.5a1.52 1.52 0 0 1-1.5-1.5V8a1.5 1.5 0 1 1 3 0v22a1.52 1.52 0 0 1-1.5 1.5Z"/>
</svg>