<svg xmlns="http://www.w3.org/2000/svg" fill="none" viewBox="0 0 74 56">
  <path fill="#fff"
    d="M6.938.09C3.131.09.018 3.196 0 7.002v41.649c0 3.812 3.125 6.937 6.938 6.937h60.124c3.813 0 6.938-3.125 6.938-6.937V7.003C73.982 3.197 70.868.089 67.062.089H6.938Zm4.01 3.082h52.11L37 21.335 10.948 3.172Zm-5.13.181L37 25.093l31.189-21.74a3.82 3.82 0 0 1 2.728 3.656c-.006.325-.338.975-.82 1.5-.487.529-.963.86-.963.86l-.006.012L37 32.121 4.872 9.38l-.006-.012s-.476-.331-.964-.86c-.481-.525-.813-1.175-.819-1.5a3.817 3.817 0 0 1 2.734-3.656Zm-2.735 8.534.012.011.012.007v.006l4.601 3.252v37.343h-.77a3.835 3.835 0 0 1-3.855-3.854V11.886Zm67.834 0v36.765a3.835 3.835 0 0 1-3.855 3.854h-.77V15.163l4.6-3.252v-.006l.025-.018Zm-60.125 5.456L37 35.89l26.208-18.548v35.163H10.792V17.343Z" />
</svg>