<svg xmlns="http://www.w3.org/2000/svg" fill="none" viewBox="0 0 65 64">
  <path fill="#fff"
    d="M29.08 1.163C14.306 2.77 2.422 14.653.816 29.106-.79 44.202 7.882 57.691 21.05 62.83c.964.321 1.927-.321 1.927-1.606v-5.139s-1.284.322-2.89.322c-4.497 0-6.424-3.855-6.745-6.103-.321-1.285-.963-2.248-1.927-3.212-.963-.32-1.285-.32-1.285-.642 0-.642.964-.642 1.285-.642 1.927 0 3.533 2.248 4.175 3.211 1.606 2.57 3.533 3.212 4.497 3.212 1.285 0 2.248-.321 2.89-.642.322-2.248 1.285-4.497 3.212-5.781-7.387-1.606-12.847-5.782-12.847-12.848 0-3.533 1.606-7.066 3.854-9.635-.32-.642-.642-2.248-.642-4.497 0-1.284 0-2.89.642-4.175 0-.642.643-.963.964-.963h.321c1.606.32 4.818 1.284 7.708 4.175 1.927-.642 4.176-.964 6.424-.964s4.496.322 6.423.964c2.891-2.89 6.424-3.854 8.03-4.175h.321c.643 0 .964.32 1.285.963v4.175c0 2.57-.321 3.855-.642 4.497 2.248 2.57 3.854 5.781 3.854 9.635 0 7.066-5.46 11.242-12.848 12.848 1.928 1.605 3.212 4.496 3.212 7.387v8.35c0 .964.964 1.927 2.249 1.606 11.883-4.817 20.234-16.38 20.234-29.87 0-19.27-16.38-34.366-35.651-32.118Z" />
</svg>