<svg xmlns="http://www.w3.org/2000/svg" fill="none" viewBox="0 0 72 68">
  <path fill="#fff"
    d="M9.792.792c-2.601 0-4.879.74-6.546 2.087C1.579 4.226.56 6.221.56 8.401c0 4.23 3.788 7.504 8.795 7.7.142.045.289.07.437.072 2.703 0 5.005-.792 6.648-2.195A7.308 7.308 0 0 0 19.024 8.4l-.003-.084C18.783 4.061 14.995.792 9.792.792Zm0 3.048c4.022 0 6.006 1.975 6.176 4.6-.011 1.284-.508 2.374-1.503 3.222-1.006.859-2.559 1.464-4.673 1.464-4.011 0-6.185-2.178-6.185-4.725 0-1.273.523-2.32 1.554-3.152 1.03-.832 2.607-1.41 4.631-1.41ZM2.084 19.274a1.542 1.542 0 0 0-1.542 1.542v44.708a1.542 1.542 0 0 0 1.542 1.542H17.5a1.542 1.542 0 0 0 1.542-1.542V20.816a1.542 1.542 0 0 0-1.542-1.542H2.084Zm23.125 0a1.542 1.542 0 0 0-1.542 1.542v44.708a1.542 1.542 0 0 0 1.542 1.542h15.416a1.542 1.542 0 0 0 1.542-1.542V40.087a5.373 5.373 0 0 1 5.396-5.396 5.373 5.373 0 0 1 5.396 5.396v25.437a1.542 1.542 0 0 0 1.541 1.542h15.417a1.542 1.542 0 0 0 1.542-1.542V39.316c0-6.362-1.869-11.401-5.02-14.839-3.15-3.436-7.546-5.203-12.267-5.203-6.019 0-9.66 2.199-12.005 4.011v-2.469a1.542 1.542 0 0 0-1.542-1.542H25.21ZM3.625 22.358H15.96v41.624H3.625V22.359Zm23.125 0h12.334v4.068a1.542 1.542 0 0 0 2.688 1.03s4.573-5.098 12.4-5.098c3.967 0 7.444 1.422 9.994 4.203 2.55 2.782 4.21 6.992 4.21 12.755v24.667H56.041V40.087a1.542 1.542 0 0 0-.13-.632c-.342-4.357-3.909-7.847-8.35-7.847-4.664 0-8.478 3.814-8.478 8.479v23.896H26.75V22.358Z" />
</svg>